<svg width="20" height="20" viewBox="0 0 20 20" fill="none" xmlns="http://www.w3.org/2000/svg">
<path fill-rule="evenodd" clip-rule="evenodd" d="M10 0.134888C4.477 0.134888 0 4.61889 0 10.1519C0 14.5769 2.865 18.3319 6.839 19.6559C7.339 19.7479 7.521 19.4389 7.521 19.1729C7.521 18.9359 7.513 18.3049 7.508 17.4699C4.726 18.0749 4.139 16.1269 4.139 16.1269C3.685 14.9689 3.029 14.6609 3.029 14.6609C2.121 14.0409 3.098 14.0529 3.098 14.0529C4.101 14.1229 4.629 15.0849 4.629 15.0849C5.521 16.6149 6.97 16.1729 7.539 15.9169C7.631 15.2699 7.889 14.8289 8.175 14.5789C5.955 14.3259 3.62 13.4659 3.62 9.62789C3.62 8.53489 4.01 7.63989 4.649 6.93989C4.546 6.68689 4.203 5.66789 4.747 4.28989C4.747 4.28989 5.587 4.01989 7.497 5.31589C8.31277 5.0934 9.15444 4.98008 10 4.97889C10.85 4.98289 11.705 5.09389 12.504 5.31589C14.413 4.01989 15.251 4.28889 15.251 4.28889C15.797 5.66789 15.453 6.68689 15.351 6.93989C15.991 7.63989 16.379 8.53489 16.379 9.62789C16.379 13.4759 14.04 14.3229 11.813 14.5709C12.172 14.8799 12.491 15.4909 12.491 16.4259C12.491 17.7639 12.479 18.8449 12.479 19.1729C12.479 19.4409 12.659 19.7529 13.167 19.6549C15.1583 18.987 16.8893 17.7102 18.1155 16.0049C19.3416 14.2997 20.0009 12.2522 20 10.1519C20 4.61889 15.522 0.134888 10 0.134888Z" fill="black" fill-opacity="0.65"/>
</svg>
