<svg width="20" height="21" viewBox="0 0 20 21" fill="none" xmlns="http://www.w3.org/2000/svg">
<path fill-rule="evenodd" clip-rule="evenodd" d="M10.315 0.134888C12.745 0.134888 13.099 0.147888 14.123 0.194888C15.187 0.243888 15.914 0.412888 16.55 0.659888C17.2175 0.910761 17.8222 1.30424 18.322 1.81289C18.8306 2.31266 19.2241 2.91739 19.475 3.58489C19.722 4.22089 19.891 4.94789 19.94 6.01189C19.988 7.07889 20 7.41889 20 10.1349V10.2149C20 12.8579 19.988 13.2019 19.94 14.2579C19.891 15.3219 19.722 16.0489 19.475 16.6849C19.2241 17.3524 18.8306 17.9571 18.322 18.4569C17.8222 18.9655 17.2175 19.359 16.55 19.6099C15.914 19.8569 15.187 20.0259 14.123 20.0749C13.056 20.1229 12.716 20.1349 10 20.1349H9.92C7.277 20.1349 6.933 20.1229 5.877 20.0749C4.813 20.0259 4.086 19.8569 3.45 19.6099C2.7825 19.359 2.17777 18.9655 1.678 18.4569C1.16936 17.9571 0.775874 17.3524 0.525 16.6849C0.278 16.0489 0.109 15.3219 0.0599999 14.2579C0.0129999 13.2339 0 12.8789 0 10.4499V9.81989C0 7.38989 0.0129999 7.03589 0.0599999 6.01189C0.109 4.94789 0.278 4.22089 0.525 3.58489C0.775874 2.91739 1.16936 2.31266 1.678 1.81289C2.17777 1.30424 2.7825 0.910761 3.45 0.659888C4.086 0.412888 4.813 0.243888 5.877 0.194888C6.901 0.147888 7.256 0.134888 9.685 0.134888H10.315ZM10.234 1.93689H9.766C7.31 1.93689 6.982 1.94789 5.959 1.99489C4.984 2.03989 4.455 2.20189 4.102 2.33889C3.635 2.52089 3.302 2.73689 2.952 3.08689C2.602 3.43689 2.386 3.76989 2.204 4.23689C2.067 4.58989 1.904 5.11889 1.86 6.09389C1.813 7.11689 1.802 7.44489 1.802 9.90089V10.3689C1.802 12.8249 1.813 13.1529 1.86 14.1759C1.905 15.1509 2.067 15.6799 2.204 16.0329C2.386 16.4989 2.603 16.8329 2.952 17.1829C3.302 17.5329 3.635 17.7489 4.102 17.9309C4.455 18.0679 4.984 18.2309 5.959 18.2749C7.013 18.3229 7.329 18.3329 10 18.3329H10.08C12.677 18.3329 12.997 18.3229 14.04 18.2749C15.016 18.2299 15.545 18.0679 15.898 17.9309C16.364 17.7489 16.698 17.5329 17.048 17.1829C17.398 16.8329 17.614 16.4999 17.796 16.0329C17.933 15.6799 18.096 15.1509 18.14 14.1759C18.188 13.1209 18.198 12.8059 18.198 10.1349V10.0549C18.198 7.45789 18.188 7.13789 18.14 6.09489C18.095 5.11889 17.933 4.58989 17.796 4.23689C17.6358 3.80246 17.3802 3.40948 17.048 3.08689C16.7254 2.75475 16.3324 2.49915 15.898 2.33889C15.545 2.20189 15.016 2.03889 14.041 1.99489C13.018 1.94789 12.69 1.93689 10.234 1.93689ZM10 4.99989C10.6743 4.99989 11.3421 5.13271 11.9651 5.39077C12.5881 5.64882 13.1542 6.02707 13.631 6.50389C14.1078 6.98072 14.4861 7.5468 14.7441 8.16981C15.0022 8.79282 15.135 9.46055 15.135 10.1349C15.135 10.8092 15.0022 11.477 14.7441 12.1C14.4861 12.723 14.1078 13.2891 13.631 13.7659C13.1542 14.2427 12.5881 14.621 11.9651 14.879C11.3421 15.1371 10.6743 15.2699 10 15.2699C8.63811 15.2699 7.33201 14.7289 6.36901 13.7659C5.40601 12.8029 4.865 11.4968 4.865 10.1349C4.865 8.773 5.40601 7.46689 6.36901 6.50389C7.33201 5.5409 8.63811 4.99989 10 4.99989ZM10 6.80189C9.11603 6.80189 8.26827 7.15304 7.64321 7.7781C7.01815 8.40316 6.667 9.25092 6.667 10.1349C6.667 11.0189 7.01815 11.8666 7.64321 12.4917C8.26827 13.1167 9.11603 13.4679 10 13.4679C10.884 13.4679 11.7317 13.1167 12.3568 12.4917C12.9818 11.8666 13.333 11.0189 13.333 10.1349C13.333 9.25092 12.9818 8.40316 12.3568 7.7781C11.7317 7.15304 10.884 6.80189 10 6.80189ZM15.338 3.59689C15.6563 3.59689 15.9615 3.72332 16.1865 3.94836C16.4116 4.1734 16.538 4.47863 16.538 4.79689C16.538 5.11515 16.4116 5.42037 16.1865 5.64542C15.9615 5.87046 15.6563 5.99689 15.338 5.99689C15.0197 5.99689 14.7145 5.87046 14.4895 5.64542C14.2644 5.42037 14.138 5.11515 14.138 4.79689C14.138 4.47863 14.2644 4.1734 14.4895 3.94836C14.7145 3.72332 15.0197 3.59689 15.338 3.59689Z" fill="black" fill-opacity="0.65"/>
</svg>
