<svg width="20" height="17" viewBox="0 0 20 17" fill="none" xmlns="http://www.w3.org/2000/svg">
<path d="M6.29 16.3883C13.837 16.3883 17.965 10.1353 17.965 4.71329C17.965 4.53529 17.965 4.35829 17.953 4.18329C18.7562 3.60181 19.4493 2.8819 20 2.05729C19.2511 2.38929 18.4566 2.60705 17.643 2.70329C18.4996 2.19035 19.1408 1.38363 19.447 0.433286C18.6417 0.911173 17.7607 1.24801 16.842 1.42929C16.2234 0.771051 15.405 0.33512 14.5136 0.188991C13.6222 0.0428612 12.7075 0.194685 11.9111 0.620955C11.1147 1.04722 10.4811 1.72416 10.1083 2.54695C9.7355 3.36973 9.64437 4.29247 9.849 5.17229C8.21759 5.09053 6.6216 4.66661 5.16465 3.92805C3.70769 3.1895 2.42233 2.15281 1.392 0.885286C0.867318 1.78849 0.706589 2.85771 0.942536 3.87525C1.17848 4.89279 1.79337 5.78216 2.662 6.36229C2.00926 6.34339 1.37063 6.16779 0.8 5.85029V5.90229C0.800389 6.84958 1.1284 7.76759 1.7284 8.50064C2.3284 9.2337 3.16347 9.73667 4.092 9.92429C3.48781 10.089 2.85389 10.1129 2.239 9.99429C2.50116 10.8098 3.01168 11.5229 3.69913 12.0339C4.38658 12.5449 5.21657 12.8283 6.073 12.8443C5.22212 13.5129 4.24779 14.0071 3.20573 14.2988C2.16367 14.5905 1.07432 14.6739 0 14.5443C1.8766 15.7486 4.06019 16.3874 6.29 16.3843" fill="black" fill-opacity="0.65"/>
</svg>
